<svg xmlns="http://www.w3.org/2000/svg" viewBox="0 0 48 48">
  <defs>
    <linearGradient id="g" x1="0" y1="0" x2="48" y2="48" gradientUnits="userSpaceOnUse">
      <stop stop-color="#7c5cfc"/>
      <stop offset="1" stop-color="#4ecdc4"/>
    </linearGradient>
  </defs>
  <rect width="48" height="48" rx="14" fill="url(#g)"/>
  <path d="M16 18.5A2.5 2.5 0 0118.5 16h2A2.5 2.5 0 0123 18.5v2A2.5 2.5 0 0120.5 23h-2A2.5 2.5 0 0116 20.5v-2z" fill="#fff" opacity=".9"/>
  <path d="M25 27.5A2.5 2.5 0 0127.5 25h2A2.5 2.5 0 0132 27.5v2A2.5 2.5 0 0129.5 32h-2A2.5 2.5 0 0125 29.5v-2z" fill="#fff" opacity=".9"/>
  <path d="M14 28a2 2 0 012-2h4a2 2 0 012 2v4a2 2 0 01-2 2h-4a2 2 0 01-2-2v-4z" fill="#fff" opacity=".5"/>
  <path d="M26 16a2 2 0 012-2h4a2 2 0 012 2v4a2 2 0 01-2 2h-4a2 2 0 01-2-2v-4z" fill="#fff" opacity=".5"/>
  <path d="M21 21l6 6" stroke="#fff" stroke-width="2.5" stroke-linecap="round" opacity=".8"/>
</svg>
